<svg width="104" height="104" viewBox="0 0 104 104" fill="none" xmlns="http://www.w3.org/2000/svg">
<path fill-rule="evenodd" clip-rule="evenodd" d="M52 104C80.7188 104 104 80.7188 104 52C104 23.2812 80.7188 0 52 0C23.2812 0 0 23.2812 0 52C0 80.7188 23.2812 104 52 104ZM57.3821 70.9999V29.5879H51.4741C51.2128 29.9799 50.6808 30.3999 49.8781 30.8479C49.0941 31.2959 48.1421 31.7066 47.0221 32.0799C45.9021 32.4532 44.7354 32.7332 43.5221 32.9199V38.0719C44.7541 37.9412 45.9301 37.7359 47.0501 37.4559C48.1701 37.1572 49.1221 36.8492 49.9061 36.5319C50.6901 36.2146 51.1661 35.9532 51.3341 35.7479V70.9999H57.3821Z" fill="#18816E"/>
</svg>
