<svg width="104" height="104" viewBox="0 0 104 104" fill="none" xmlns="http://www.w3.org/2000/svg">
<path fill-rule="evenodd" clip-rule="evenodd" d="M52 104C80.7188 104 104 80.7188 104 52C104 23.2812 80.7188 0 52 0C23.2812 0 0 23.2812 0 52C0 80.7188 23.2812 104 52 104ZM39.196 67.708V72.832H64.704V67.736H46.14C46.3267 67.064 46.84 66.2427 47.68 65.272C48.5387 64.2827 49.6213 63.1813 50.928 61.968C52.2533 60.736 53.7093 59.4293 55.296 58.048C56.2667 57.1893 57.2933 56.228 58.376 55.164C59.4587 54.1 60.4667 52.9427 61.4 51.692C62.352 50.4413 63.1173 49.1067 63.696 47.688C64.2933 46.2507 64.592 44.748 64.592 43.18C64.592 40.8093 64.1253 38.7093 63.192 36.88C62.2773 35.0507 60.896 33.6133 59.048 32.568C57.2187 31.5227 54.932 31 52.188 31C49.276 31 46.84 31.5787 44.88 32.736C42.92 33.8747 41.4453 35.4893 40.456 37.58C39.4853 39.652 39 42.0787 39 44.86H45.104C45.104 43.1053 45.328 41.5747 45.776 40.268C46.224 38.9427 46.9613 37.916 47.988 37.188C49.0147 36.46 50.3867 36.096 52.104 36.096C54.2507 36.096 55.8467 36.712 56.892 37.944C57.956 39.1573 58.488 40.884 58.488 43.124C58.488 44.7107 58.068 46.2227 57.228 47.66C56.4067 49.0787 55.3707 50.432 54.12 51.72C52.8693 52.9893 51.5907 54.2213 50.284 55.416C49.22 56.368 48.072 57.4133 46.84 58.552C45.6267 59.6907 44.4693 60.8293 43.368 61.968C42.2667 63.1067 41.3333 64.18 40.568 65.188C39.8027 66.1773 39.3453 67.0173 39.196 67.708Z" fill="#18816E"/>
</svg>
