<svg width="104" height="104" viewBox="0 0 104 104" fill="none" xmlns="http://www.w3.org/2000/svg">
<path fill-rule="evenodd" clip-rule="evenodd" d="M52 104C80.7188 104 104 80.7188 104 52C104 23.2812 80.7188 0 52 0C23.2812 0 0 23.2812 0 52C0 80.7188 23.2812 104 52 104ZM61.428 52.476C60.3827 51.5987 59.0387 51.132 57.396 51.076C59.0387 51.0013 60.3827 50.544 61.428 49.704C62.492 48.864 63.276 47.7813 63.78 46.456C64.3027 45.112 64.564 43.6653 64.564 42.116C64.564 40.0813 64.116 38.224 63.22 36.544C62.324 34.864 60.952 33.52 59.104 32.512C57.256 31.504 54.8947 31 52.02 31C49.7613 31 47.8107 31.3173 46.168 31.952C44.5253 32.5867 43.172 33.492 42.108 34.668C41.0627 35.8253 40.2787 37.188 39.756 38.756C39.252 40.324 39 42.032 39 43.88H45.104C45.104 40.9307 45.748 38.896 47.036 37.776C48.324 36.656 50.0227 36.096 52.132 36.096C54.0547 36.096 55.5853 36.5907 56.724 37.58C57.8627 38.5693 58.432 40.184 58.432 42.424C58.432 43.2453 58.32 44.048 58.096 44.832C57.8907 45.5973 57.536 46.2973 57.032 46.932C56.528 47.548 55.828 48.0427 54.932 48.416C54.0547 48.7707 52.944 48.948 51.6 48.948H50.088V53.568H51.6C52.9813 53.568 54.1107 53.7547 54.988 54.128C55.884 54.4827 56.584 54.9773 57.088 55.612C57.592 56.228 57.9373 56.956 58.124 57.796C58.3293 58.636 58.432 59.5413 58.432 60.512C58.432 63.2 57.8533 65.188 56.696 66.476C55.5573 67.7453 54.008 68.38 52.048 68.38C50.592 68.38 49.3413 68.1467 48.296 67.68C47.2693 67.1947 46.476 66.3453 45.916 65.132C45.3747 63.9187 45.104 62.22 45.104 60.036V59.98V59.924H39V59.98V60.036C39 62.0147 39.224 63.8253 39.672 65.468C40.1387 67.1107 40.8667 68.5293 41.856 69.724C42.864 70.9 44.1987 71.8147 45.86 72.468C47.5213 73.1027 49.556 73.42 51.964 73.42C54.8573 73.42 57.228 72.8507 59.076 71.712C60.9427 70.5733 62.324 69.0427 63.22 67.12C64.116 65.1787 64.564 63.0227 64.564 60.652C64.564 58.916 64.3027 57.3387 63.78 55.92C63.276 54.4827 62.492 53.3347 61.428 52.476Z" fill="#18816E"/>
</svg>
